<svg xmlns="http://www.w3.org/2000/svg" width="800" height="800" viewBox="0 0 800 800">
  <rect width="800" height="800" fill="#0b1220"/>
  <circle cx="560" cy="240" r="120" fill="#101a33"/>
  <circle cx="570" cy="235" r="78" fill="#0b1220"/>
  <g fill="#cfd8ff" opacity="0.9">
    <circle cx="140" cy="180" r="2"/>
    <circle cx="250" cy="120" r="2"/>
    <circle cx="340" cy="220" r="1.5"/>
    <circle cx="460" cy="140" r="2"/>
    <circle cx="640" cy="160" r="1.5"/>
    <circle cx="190" cy="320" r="1.8"/>
    <circle cx="290" cy="360" r="1.4"/>
    <circle cx="410" cy="300" r="1.6"/>
    <circle cx="520" cy="360" r="2"/>
    <circle cx="680" cy="320" r="1.7"/>
    <circle cx="220" cy="520" r="1.5"/>
    <circle cx="360" cy="540" r="1.8"/>
    <circle cx="510" cy="520" r="1.4"/>
    <circle cx="650" cy="560" r="2"/>
  </g>
  <rect x="0" y="620" width="800" height="180" fill="#0a0f1a"/>
  <path d="M0,650 C120,610 240,700 360,660 C480,620 560,700 680,660 C720,646 760,636 800,640 L800,800 L0,800 Z" fill="#070a11"/>
</svg>
